<?xml version="1.0" encoding="utf-8"?>
<!-- Generator: Adobe Illustrator 19.0.0, SVG Export Plug-In . SVG Version: 6.00 Build 0)  -->
<svg version="1.1" xmlns="http://www.w3.org/2000/svg" xmlns:xlink="http://www.w3.org/1999/xlink" x="0px" y="0px"
	 viewBox="-203 205 592 592" style="enable-background:new -203 205 592 592;" xml:space="preserve">
<style type="text/css">
	.st0{display:none;}
	.st1{display:inline;}
	.st2{fill:#FFFFFF;}
	.st3{fill:none;stroke:#FFFFFF;stroke-width:7;stroke-miterlimit:10;}
	.st4{fill:none;stroke:#FFFFFF;stroke-width:20;stroke-miterlimit:10;}
</style>
<g id="Camada_1" class="st0">
	<g id="Camada_1_1_" class="st1">
	</g>
	<g id="Camada_2" class="st1">
	</g>
</g>
<g id="Camada_2_1_">
	<g id="XMLID_43_">
		<path id="XMLID_40_" class="st2" d="M291.7,466.3l-0.2-2.2c-0.6-1.3-0.2-3.2-0.2-3.2c0.2-0.2,0.5-1.3,0.5-1.3s-0.1-0.5-0.8-0.7
			c-0.7-0.2-2.2,0.8-2.2,0.8l-0.8,0.7c-1.3-0.1-1.9,0.7-1.9,0.7l-3.5,3.5l-2.2,1.8c-3.5,3.4-5.3,7.2-5.3,7.2
			c-0.6,0.7-1.6,3.2-1.6,3.2c-2.4,3.2-5.4,3.3-5.4,3.3l-0.9-0.1l-3.7-0.3l-4.2-0.3l-5-0.4l-7.7-0.9l-8-1.3l-9.5-1.5l-10.6-1.9
			l-5.9-1l-3.1-0.6l-6.6-1.5l-2.4-0.5c0,0-0.6,0.1-1.4-0.3c-0.3-0.1-1.1-0.3-2.1-0.5c0.3-1.6,0.6-3.2,0.9-4.8
			c0.5-3.6,0.9-7.2,1.2-10.8c0.2-2.4,0.3-4.8,0.4-7.2c0.1-2.8-0.2-5.7,0.1-8.4c0.3-2.9,3.5-5.5,5.9-5.5c2.2,0,2.5-0.3,2.6-2.6
			c-0.4-0.1-0.8-0.3-1.4-0.5c1.6-0.5,2.9-0.9,4.2-1.3c0-0.1-0.1-0.2-0.1-0.3l-2.3-0.3c0-0.1,0-0.3,0-0.3h3.3c0,0-0.1-1.5,0-2.2
			c0-0.3,0.3-0.8,0.5-0.9c1.3-0.3,2.6-0.6,3.9-0.9c0.3-0.1,0.8-0.2,0.9-0.4c0.4-1.1,1.3-0.9,2.1-0.9c1.3,0.1,2.5-0.2,3.8-1.4
			c-1.2-0.1-2-0.2-3.1-0.3c0.8-0.5,1.5-0.9,2.1-1.4c5-3.5,10.5-5.1,16.5-3.3c3.4,1,6.2,0.1,9-1.7c0.4-0.3,1-0.5,1.3-0.9
			c2.1-2.1,3.7-4.7,2.2-7.6c-0.4-0.8-0.3-1.4,0.1-2.1c1.2-2.3,1.6-4.7,0.7-7.2c-0.2-0.5,0.8-1.3,1-1.9c0.3-0.8,2.3-1.6,2.3-2.4v-1.3
			c0-2.5-3.4-4.1-5.6-5.3c-1.1-0.6-2.7-1-3.8-1.5c-7.3-3.6-14.9-7.2-22.2-10.8c0,0-0.2-0.1-0.3-0.3c0.9-0.7,1.7-1.4,2.6-2.1
			c0.8-0.6,1.1-1.3,0.7-2.2c-0.5-1.2-1.2-2.2-1.5-3.4c-0.7-2.6-2.9-3.5-4.8-4.8c-1.9-1.3-4.1-2-6.1-3.1c-1.2-0.7-2.5-1.4-3.6-2.2
			c-2.6-1.8-5.1-3.8-7.7-5.5c-3.8-2.5-8.2-3.9-12.7-4.1c-1.4-0.1-2.8-1.1-4.2-1.1h-3.7c-0.2,0-0.4,0.7-0.6,0.8
			c-3.6,0.8-7.3,1.7-10.9,2.8c-5.4,1.6-10.2,4.4-13.4,9.2c-0.7,1-1,2.3-1.4,3.4c-0.3,0.9-0.4,2-0.9,2.8c-1.1,1.8-2.3,3.7-3.6,5.4
			c-2.7,3.6-7.1,5.8-9.5,9.8c-4.1,2.9-8.2,5.8-12.9,7.4c-4.7,1.6-9.6,2.3-14.6,2.5c-1.3,0.1-2.7,0.4-3.6,1.1
			c-0.8,0.7-1.5,1.3-2.5,1.5c-2.8,0.5-5.5,1-8.3,1.6c-1.4,0.3-2.7,1.2-4.2,1.5c-3.8,1-7.6,1.8-11.5,2.7c-3.3,0.7-6.6,1.3-9.9,1.9
			c-2.7,0.5-5.3,1.1-7.9,1.7c-1.8,0.4-3.6,0.7-5.4,1.2c-5.6,1.8-11.3,3.5-17.2,3.4c-1.5,0-2.9,0.1-4.4,0.4c-2.7,0.5-5.4,1.2-8.1,2
			c-3,1-6.4,1.3-9.6,1.5c-5.2,0.3-10.3,0.4-15.5,0.5c-0.6,0-1.3-0.2-1.9-0.4c-2.7-0.8-4.6-2.6-6.4-4.7c-1.3-1.5-2.5-3.1-4.1-4.3
			c-1.3-1-3-1.7-4.5-2.4c-6.1-2.8-12.1-5.5-18.6-7.3c-4.1-1.1-8.2-1.9-12.5-1.7c-0.3,0-0.5-0.1-0.9-0.2c0.3-0.2,0.5-0.4,0.7-0.6
			c-2.9,0-5.7-0.3-8.3,0.1c-5.3,0.7-10.2,2.5-14.3,6.1c-1.9,1.7-4.2,3.3-5.5,5.5c-3,4.9-5.7,10-8,15.3c-2.6,6.2-4.8,12.6-6.9,19
			c-0.9,2.8-1.1,5.9-1.7,8.9c-0.4,2.1-0.9,4.1-1.3,6.2c-1.2,5.8-2.3,11.7-4.6,17.3c-0.7,1.7-1.1,3.6-1.3,5.5c-0.4,4-0.9,8-2.2,11.9
			c-1.8,5.3-3.2,10.5-8.9,12.9c-0.2,0.1-0.2,0.2-0.2,0.3v1.3c0,0.4,0.2,0.8,0.1,1.1c-0.2,1.2,0.3,1.6,1.2,2c2.7,1,5,0.2,7-1.6
			c5.6-5,9.9-11,11.9-18.3c2.8-10.3,5.7-20.6,7.9-31.1c1.7-8.2,4.2-16.2,6.5-24.2c0.4-1.5,0.9-2.9,1.3-4.4
			c1.6-6.1,3.9-11.7,9.1-15.7c2.1-1.6,4.3-2.5,6.9-2.7c4.1-0.3,7.8,0.8,11.4,2.6c4.2,2.1,7.3,5.5,10.4,8.9c1.7,1.9,3.4,3.8,6.2,3.8
			c-0.2,0.5-0.6,1.1-0.8,1.8c-0.3,0.6-0.4,1.4-0.8,1.9c-0.9,1.2-2,2.3-3,3.3c-2.6,2.7-4.9,5.7-6.5,9.1c-2.1,4.5-3.1,9.3-3.2,14.3
			c-0.1,4-0.1,8-1.1,12c-0.5,2.1-1.3,4.1-1.5,6.2c-0.4,2.9-0.3,5.8-0.6,8.7c-0.3,3.3-0.8,6.5-1.3,9.8c-0.3,1.9-0.8,3.8-0.8,5.7
			c-0.1,4.7-0.1,9.5,0,14.2c0.1,7.2,0.8,14.4,2.6,21.5c1.5,5.7,3.1,11.3,7.6,15.5c0.6,0.6,0.9,1.3-0.4,1.6c-0.3,0.1-0.6,0.3-0.8,0.5
			c-1.8,1.3-3.4,3-5.4,3.8c-1.5,0.6-1.9,1.6-2.4,2.7c-1.2,2.4-2.2,4.8-3.4,7.1c-1.9,3.3-4,6.5-5.9,9.9c-2.7,4.8-5.8,9.3-10.6,12.4
			c-3.4,2.2-6.5,4.5-9.6,7.1c-5,4.1-5.3,9.6-1.9,14.7c1,1.4,2.5,2.5,2.7,4.5c0,0.1,0.2,0.2,0.3,0.3c0.7,0.7,1.4,1.5,2.1,2.2
			c2.1,2.3,4.3,4.5,6.1,7c1.9,2.8,3.5,5.8,5,8.9c1.4,2.9,2.4,5.9,6.4,6.3c3.2,0.3,5.2-0.5,6.5-3.4c0.1-0.1,0.1-0.3,0.1-0.3
			c-0.5-0.9-2.2-0.5-2-2.2c2.2,0.2,4.4,0.2,6.5,0.5c2.3,0.4,4.6,0.8,6.7,1.6c2,0.8,3.9,1,5.9,0.9c1.2-0.1,2.8,0.3,3.3-1.5
			c0-0.2,0.9-0.3,1.3-0.2c0.4,0.1,0.7,0.4,1,0.6c1.9,1.6,3.9,1.3,6,0.5c0.5-0.2,1-0.8,1.1-1.3c0.6-2.7-1.2-6.8-3.6-8.2
			c-1.2-0.7-2.5-1.4-3.8-2.1c-1.7-0.9-3.4-1.6-5.1-2.4c-0.6-0.3-1.1-0.5-1.7-0.8c-1.3-0.7-2.6-1.4-4-2.1c-2.6-1.4-5.7-1.4-8.4-2.8
			c-2.7-1.3-4.8-3.1-6.9-5.1c-0.9-0.9-0.9-1.8-0.1-2.8c0.8-1,1.4-2.3,2.3-3.2c1.5-1.5,3.1-2.9,4.8-4.2c1-0.8,2.3-1.2,3.4-1.9
			c3.1-2.2,6.1-4.5,9.1-6.8c4.2-3.4,8.8-6.4,12.5-10.5c2.3-2.5,4.5-5.1,6.9-7.5c4.8-4.8,9.7-9.5,14.5-14.2c1.2-1.1,1.8-1.1,2.8,0.1
			c0.6,0.7,0.9,1.6,1.5,2.3c2.2,2.7,5.1,4.6,8.5,5.4c0.4,0.1,1,0.3,1.1,0.6c0.6,2.3,1.1,4.6,1.6,6.9c0,0.1-0.1,0.2-0.1,0.4
			c-1.3,2.4-1.5,5-1.3,7.7c0.2,2.7,0.6,5.4,0.9,8.1c0.1,1.1,0.3,2.3,0.5,3.4c0.5,3.3,1,6.5,1.5,9.8c0.2,1.8,0.2,3.6,0.5,5.4
			c0.5,3.1,0.7,6.1,0.1,9.2c-0.7,3.4-0.6,6.9-2.4,10.1c-0.9,1.7-1.2,3.8-1.7,5.8c-0.1,0.5,0,1.3,0.4,1.6c1.1,0.9,2.2,1.7,3.4,2.4
			c3.8,2.1,7.7,4,11.5,6.1c3.4,1.9,7,3,10.8,3.4c1.8,0.1,3.7-0.1,5.6,0c8.1,0.2,16.3,0.5,24.4,0.7c1.8,0,3.6-0.3,5.4-0.7
			c1.1-0.2,2.6-0.2,2.9-1.8c0-0.1,0.5-0.3,0.8-0.2c1,0,2.1,0.3,3,0.2c3.6-0.5,7.1-1,10.7-1.6c0.2,0,0.6-0.7,0.5-1
			c-0.2-1.7-1.3-2.8-2.9-3.4c-2-0.8-4-1.6-6-2.4c-3.7-1.4-7.4-2.7-11.3-3.2c-3-0.4-6-0.8-8.9-1.6c-4.8-1.3-9.8-1.4-14.7-1.6
			c-2.4-0.1-4.8-0.4-6.8-1.9c-0.6-0.5-1.2-1.2-1.4-2c-0.6-2.3,0.2-4.4,0.9-6.5c0.8-2.4,2.1-4.7,2.8-7.1c1.6-5.6,2.8-11.2,4.3-16.8
			c1.1-3.9,1.8-7.8,1.6-11.9c-0.1-2.7-0.3-5.3-0.5-8c-0.4-4.5,1.5-8.5,2.4-12.8c0.5-2.5,1.9-4.9,2.8-7.4c0.5-1.5,1-3.1,0.3-4.6
			c-1.1-2.8-1.4-5.8-1.5-8.8c-0.1-2.8-0.3-5.7-0.8-8.4c-0.6-3-1.8-5.9-4-8.2c-1.4-1.5-2.4-3.1-2.6-5.2c0-0.2,0-0.6-0.1-0.6
			c-1.3-0.4-1.1-1.5-1.5-2.4c-1.3-3.6-2.6-7.2-3.7-10.9c-0.9-3.1-1.1-6.5-2.3-9.4c0-0.1-0.1-0.2-0.1-0.2c2.3,0.2,4.5,0.2,6.8,0.4
			c2.1,0.4,4.1,0.9,6,1.7c2.1,1,4,2.2,5.9,3.6c-0.1-0.1-0.2-0.2-0.3-0.3c0.5,0.4,1.1,0.8,1.6,1c3,2.2,6,4.5,9.3,6.2
			c2.5,1.3,5.5,2,8.3,2.4c2.7,0.4,5,1,7,3c0.6,0.6,1.6,0.9,2.4,1c1.4,0.2,2.9,0.1,4.4,0.3c2.3,0.3,4.5,1.1,6.7,1.1c2.1,0,4,0.4,6,1
			c0.5,0.2,1.1,0.1,1.7,0c2.6-0.2,5.3-0.4,7.9-0.5c1.8,0,3.5,0.5,4.7,1.5c-0.2,1.6-0.5,2.9-0.6,4.3c-0.2,2.6-0.2,5.3-0.6,7.9
			c-0.3,2-1.1,4-1.5,6c-0.6,2.5-1.1,5-1.6,7.5c-0.7,3.4-1.4,6.8-1.9,10.2c-0.2,1.3-0.1,2.5-0.9,3.6c-0.3,0.4-0.4,1.1-0.5,1.7
			c-0.3,2-0.5,4-0.8,6c-0.4,2.7-1,5.3-1.1,8c-0.1,6.7-1.9,12.9-4,19.1c-1.1,3.4-3,6.5-4,9.9c-1.5,5.2-2.4,10.5-3.9,15.7
			c-0.7,2.6,0.1,4.9,0.1,7.4c0,0.4,0.3,0.8,0.6,1.2c1.5,2.1,3.5,3,6,3c4.2,0.1,8.5,0.4,12.7,0.8c2.9,0.3,5.8,0.2,8.7,0.3
			c0.7,0,1.5-0.1,2.2-0.4c2-0.9,3.9-0.7,5.8,0.3c1.6,0.8,3.8-0.1,3.9-1.3c-0.7-0.5-1.3-1-2.1-1.5c1-0.3,1.7-0.5,2.3-0.7
			c-0.4-0.8-0.7-1.6-1.1-2.4c-0.2-0.3-0.5-0.5-0.7-0.8c-2.1-2.4-4.9-3.4-7.8-4.5c-1.4-0.5-2.8-0.8-4.5-0.7c-1.7,0.2-3.4-0.4-5.1-0.7
			c-1-0.2-2.1-0.6-3-1c-1.7-0.9-2.2-2.1-1.5-4c0.9-2.4,1.8-4.7,2.9-7c2.5-5.2,5.2-10.3,7.6-15.5c2.9-6.3,5.7-12.7,8.4-19
			c0.7-1.7,1.1-3.6,1.6-5.4c0.5-1.8,0.6-3.7,1.2-5.5c2.3-6.6,4.7-13.1,6.9-19.7c1-2.9,1.6-5.9,2.4-8.9c0.1,0,1.6-14,1.7-14
			c0.3,0.5,25.9-2.3,37.2-8.7l0.6-0.2l3-1.2l2.5-0.5l2.2-0.1l2.8-0.2l3.4-0.4l2.6-0.2l2.9,0.1c0.5,0,3.2-0.6,3.2-0.6l1.9-0.7
			l1.1-0.2l1.5,0l10.2,0.2l1.6,0l2.3-0.4l3.5-0.4l4.8-0.6l2.3-0.1l1.7,0l2.5,0l1.5-0.1l1.3-0.2l1.7-0.4l1.3,0l1.8,0.2l2.8,0.8
			c3,0.5,4.2-0.9,4.2-0.9l1.7-0.8l21.9-1.8c2.8-0.4,2.8-2.7,2.8-2.7l2.1-7.3l2.1-6.4c0.4-1.9,2.7-3.8,2.7-3.8
			c0.6-0.2,0.7-1.8,0.7-1.8l-0.1-2.8L291.7,466.3z M32.9,467.7c0-0.1,0-0.1-0.1-0.2c0.1,0,0.2,0,0.3,0
			C33.1,467.5,33,467.6,32.9,467.7z"/>
		<line id="XMLID_39_" class="st3" x1="288.5" y1="429" x2="288.5" y2="536"/>
		<path id="XMLID_38_" class="st4" d="M58.6,767.9l-176.5-98.7c-23.2-12.9-37.6-37.3-37.8-63.8l-1.9-202.2
			c-0.3-26.4,13.5-50.9,36.2-64.3l175-103.8c22.7-13.4,50.8-13.8,73.8-0.9l176.5,98.7c23.2,12.9,37.6,37.3,37.8,63.8l1.9,202.2
			c0.3,26.4-13.5,50.9-36.2,64.3l-175,103.8C109.7,780.4,81.6,780.7,58.6,767.9z"/>
	</g>
</g>
</svg>
